<?xml version="1.0" encoding="UTF-8" standalone="no"?>
<!-- Created with Inkscape (http://www.inkscape.org/) -->

<svg
   width="116.25877mm"
   height="133.19615mm"
   viewBox="0 0 116.25877 133.19615"
   version="1.1"
   id="svg1"
   xml:space="preserve"
   inkscape:version="1.4.4 (dcaf3e7d9e, 2026-05-05)"
   sodipodi:docname="mocha-logo.svg"
   xmlns:inkscape="http://www.inkscape.org/namespaces/inkscape"
   xmlns:sodipodi="http://sodipodi.sourceforge.net/DTD/sodipodi-0.dtd"
   xmlns="http://www.w3.org/2000/svg"
   xmlns:svg="http://www.w3.org/2000/svg"><sodipodi:namedview
     id="namedview1"
     pagecolor="#ffffff"
     bordercolor="#000000"
     borderopacity="0.25"
     inkscape:showpageshadow="2"
     inkscape:pageopacity="0.0"
     inkscape:pagecheckerboard="0"
     inkscape:deskcolor="#d1d1d1"
     inkscape:document-units="mm"
     inkscape:zoom="0.16"
     inkscape:cx="-1006.25"
     inkscape:cy="-534.375"
     inkscape:window-width="3440"
     inkscape:window-height="1400"
     inkscape:window-x="0"
     inkscape:window-y="0"
     inkscape:window-maximized="1"
     inkscape:current-layer="layer1" /><defs
     id="defs1"><inkscape:path-effect
       effect="fill_between_many"
       method="originald"
       linkedpaths="#g181,0,1"
       id="path-effect197"
       is_visible="true"
       lpeversion="0"
       join="true"
       close="true"
       autoreverse="true" /><inkscape:path-effect
       effect="fill_between_many"
       method="originald"
       linkedpaths="#path197,0,1"
       id="path-effect198"
       is_visible="true"
       lpeversion="0"
       join="true"
       close="true"
       autoreverse="true" /><inkscape:path-effect
       effect="fill_between_many"
       method="originald"
       linkedpaths="#path211,0,1"
       id="path-effect216"
       is_visible="true"
       lpeversion="0"
       join="true"
       close="true"
       autoreverse="true" /></defs><g
     inkscape:label="Camada 1"
     inkscape:groupmode="layer"
     id="layer1"
     transform="translate(-675.22866,-335.15553)"><path
       fill="currentColor"
       d="m 728.29564,468.21684 c -1.795,-0.11552 -4.8607,-0.51947 -6.8127,-0.89765 -1.952,-0.37819 -5.1863,-1.21681 -7.1874,-1.8636 -2.0011,-0.6468 -5.3052,-1.99652 -7.3425,-2.99938 -2.0373,-1.00286 -4.7757,-2.53237 -6.0854,-3.3989 -1.3097,-0.86653 -3.5719,-2.53502 -5.0271,-3.70774 -1.4552,-1.17273 -3.7323,-3.25691 -5.0603,-4.63152 -1.3279,-1.37462 -3.307,-3.6987 -4.398,-5.16463 -1.091,-1.46593 -2.5806,-3.6595 -3.3102,-4.8746 -0.7297,-1.2151 -1.7091,-2.97322 -2.1765,-3.90693 -0.4674,-0.93371 -1.3805,-3.0549 -2.0291,-4.71375 -0.6486,-1.65884 -1.5226,-4.34771 -1.9421,-5.97526 -0.4196,-1.62754 -0.9744,-4.26886 -1.2329,-5.86959 -0.3456,-2.13961 -0.4681,-4.38194 -0.4626,-8.46666 0.01,-4.03268 0.1323,-6.27865 0.4631,-8.19072 0.2506,-1.44896 0.7492,-3.79247 1.108,-5.2078 0.3588,-1.41533 1.0165,-3.56357 1.4617,-4.77386 0.4452,-1.2103 1.4163,-3.48046 2.1579,-5.04481 0.7417,-1.56435 1.4326,-2.84427 1.5353,-2.84427 0.1026,0 0.2673,0.92273 0.3659,2.05052 0.099,1.12779 0.3057,2.794 0.4603,3.70269 0.1546,0.90869 0.5157,1.95049 0.8025,2.3151 0.3984,0.50648 0.7667,0.66294 1.5606,0.66294 0.707,0 1.219,-0.17986 1.6018,-0.5627 0.4904,-0.49036 0.5441,-0.77097 0.4178,-2.18281 -0.08,-0.89106 -0.2888,-2.87027 -0.4648,-4.39824 -0.1963,-1.70464 -0.2621,-4.3628 -0.1704,-6.87917 0.082,-2.25557 0.3964,-5.52979 0.6981,-7.27604 0.3017,-1.74625 0.9099,-4.47699 1.3515,-6.06832 0.4416,-1.59133 1.2883,-4.13492 1.8816,-5.65243 0.5933,-1.51751 1.7524,-4.08505 2.5757,-5.70564 0.8233,-1.62059 2.3062,-4.17203 3.2954,-5.66987 0.9891,-1.49784 2.7203,-3.87909 3.847,-5.29167 1.1268,-1.41257 3.3503,-3.92631 4.9411,-5.58608 1.7438,-1.81934 3.3127,-3.20923 3.9508,-3.49991 0.582,-0.26519 1.5681,-0.48478 2.1913,-0.48797 0.6231,-0.003 1.5161,0.15474 1.9843,0.35097 0.4683,0.19623 1.2144,0.66283 1.6579,1.03689 0.4436,0.37406 1.1167,1.31484 1.4958,2.09062 0.3791,0.77577 1.4632,3.43456 2.409,5.90841 0.9458,2.47386 2.5944,6.9523 3.6636,9.9521 1.9439,5.45417 1.9439,5.45417 6.8387,5.60329 2.6921,0.082 5.9663,0.34369 7.276,0.58148 1.3097,0.2378 3.5217,0.71953 4.9155,1.07052 1.3938,0.35099 3.7751,1.06847 5.2917,1.59439 1.5166,0.52592 4.2797,1.64914 6.1404,2.49605 1.8606,0.8469 4.3014,2.05657 5.4239,2.68814 1.1836,0.66589 2.8314,1.92664 3.9224,3.00097 1.1568,1.13907 2.1899,2.4641 2.6822,3.44015 0.4405,0.87312 0.9956,2.24234 1.2337,3.0427 0.238,0.80037 0.555,2.94349 0.7043,4.7625 0.2064,2.51407 0.4147,3.59228 0.8682,4.4955 0.3303,0.65784 1.0626,1.51388 1.6405,1.91784 0.5959,0.41648 4.1667,1.81183 8.3199,3.25116 4.0019,1.38684 7.4547,2.58973 7.6729,2.6731 0.2299,0.0878 -0.2127,0.3114 -1.0519,0.53143 -0.7968,0.20893 -1.9536,0.67574 -2.5707,1.03736 -0.6171,0.36162 -1.4098,1.04179 -1.7616,1.51149 -0.3519,0.4697 -0.7216,1.1234 -0.8216,1.45268 -0.1001,0.32927 -0.1819,1.26318 -0.1819,2.07535 0,1.05977 0.1975,1.88049 0.6997,2.90699 0.3849,0.78667 1.2879,2.0737 2.0066,2.86008 0.7187,0.78637 1.8708,1.79139 2.5602,2.23336 0.6895,0.44198 1.9382,1.06529 2.7749,1.38514 0.8367,0.31985 1.5213,0.6647 1.5213,0.76634 0,0.10163 -0.482,0.85802 -1.0713,1.68086 -0.5892,0.82284 -1.631,1.92466 -2.3151,2.44848 -0.6841,0.52383 -2.3238,1.47879 -3.6439,2.12213 -1.3201,0.64334 -3.5341,1.45738 -4.9201,1.80896 -1.386,0.35159 -3.6397,0.72136 -5.0082,0.82172 -1.5369,0.11271 -3.4492,0.0581 -5.0018,-0.14278 -1.3824,-0.17889 -3.4996,-0.61024 -4.7047,-0.95855 -1.2052,-0.34831 -3.1698,-1.1239 -4.3657,-1.72355 -1.1959,-0.59964 -2.782,-1.49203 -3.5247,-1.98309 -0.7426,-0.49106 -1.6389,-0.89283 -1.9916,-0.89283 -0.3527,0 -0.9135,0.19061 -1.2461,0.42357 -0.3326,0.23297 -0.7116,0.70477 -0.8423,1.04844 -0.1447,0.38055 -0.1363,0.91526 0.021,1.36762 0.1618,0.46439 0.8769,1.15923 1.9079,1.85399 0.9069,0.61118 2.661,1.58237 3.8979,2.15821 1.2369,0.57583 3.1419,1.34516 4.2334,1.70961 1.0914,0.36446 3.0559,0.84904 4.3656,1.07684 1.3097,0.22781 3.8508,0.41457 5.647,0.41504 2.2608,5.8e-4 4.0906,-0.16725 5.9463,-0.54543 1.4744,-0.30046 3.6957,-0.93756 4.9364,-1.41579 1.2406,-0.47823 2.4641,-0.95952 2.7187,-1.06953 0.2989,-0.12913 0.463,-0.0843 0.463,0.12655 0,0.17961 -0.3825,1.11508 -0.8501,2.07883 -0.5637,1.16178 -1.4775,2.38418 -2.712,3.62751 -1.3273,1.33685 -2.4316,2.15547 -3.8462,2.85125 -1.0914,0.5368 -2.6392,1.17078 -3.4396,1.40885 -1.2305,0.366 -3.5482,0.45686 -15.0081,0.58833 -13.553,0.15548 -13.553,0.15548 -14.142,0.74492 -0.3874,0.3876 -0.589,0.91054 -0.589,1.52723 0,0.61657 0.2017,1.1397 0.5888,1.52723 0.5686,0.56903 0.7935,0.5922 6.4971,0.66937 5.9082,0.0799 5.9082,0.0799 6.0684,2.15721 0.088,1.1425 0.2999,2.65434 0.4708,3.35965 0.1709,0.7053 1.2073,3.54456 2.3032,6.30945 1.6543,4.17364 2.0132,5.34927 2.1143,6.9249 0.1012,1.57658 0.024,2.10084 -0.4588,3.09723 -0.3193,0.65968 -0.9937,1.56205 -1.4985,2.00528 -0.5048,0.44323 -1.5385,1.13307 -2.2971,1.53298 -1.2911,0.68063 -1.5823,0.72584 -4.5543,0.70715 -2.3948,-0.0151 -3.7276,-0.16578 -5.4239,-0.61334 -1.237,-0.32635 -3.261,-0.99745 -4.498,-1.49132 -1.2369,-0.49387 -3.345,-1.48218 -4.6846,-2.19624 -1.3397,-0.71406 -3.4219,-1.99851 -4.6272,-2.85434 -1.2053,-0.85582 -3.443,-2.8062 -4.9726,-4.33417 -1.5297,-1.52797 -3.5376,-3.84969 -4.4621,-5.15937 -0.9245,-1.30969 -2.2525,-3.51715 -2.9511,-4.90547 -0.6986,-1.38832 -1.5725,-3.53144 -1.9419,-4.7625 -0.3695,-1.23106 -0.7989,-2.95176 -0.9544,-3.82379 -0.1555,-0.87203 -0.3505,-2.7175 -0.4335,-4.10104 -0.097,-1.61698 -0.01,-3.55514 0.2512,-5.42595 0.2211,-1.60073 0.7125,-3.98198 1.0921,-5.29167 0.3796,-1.30969 1.2106,-3.45281 1.8468,-4.7625 0.6361,-1.30969 1.6231,-3.0992 2.1932,-3.97669 0.5701,-0.8775 1.8183,-2.49184 2.7738,-3.58743 0.9555,-1.09558 2.7312,-2.83202 3.946,-3.85875 1.2148,-1.02673 3.5184,-2.74879 5.1191,-3.82681 1.6008,-1.07801 3.4462,-2.23895 4.1011,-2.57985 1.1906,-0.61982 1.1906,-0.61982 2.6172,0.26724 1.2045,0.7489 1.7246,0.9021 3.3399,0.98367 1.4769,0.0746 2.1773,-0.0207 3.0713,-0.41793 0.6369,-0.283 1.5508,-0.84654 2.0309,-1.25232 0.4801,-0.40577 1.1714,-1.32685 1.5363,-2.04684 0.3648,-0.72 0.7304,-1.87523 0.8124,-2.56718 0.093,-0.78906 -0.01,-1.7951 -0.2698,-2.69846 -0.2404,-0.827 -0.8298,-1.92068 -1.3842,-2.56831 -0.531,-0.62038 -1.5661,-1.43234 -2.3003,-1.80438 -1.0207,-0.51723 -1.7454,-0.67856 -3.0792,-0.68553 -1.2823,-0.007 -2.0848,0.1515 -3.0297,0.59731 -0.707,0.33353 -1.6797,1.01236 -2.1616,1.50853 -0.4818,0.49616 -1.0856,1.34019 -1.3416,1.87563 -0.2561,0.53543 -0.5335,1.70968 -0.6166,2.60944 -0.1511,1.63592 -0.1511,1.63592 -3.0615,3.39425 -1.6007,0.96709 -4.0415,2.61217 -5.4239,3.65575 -1.3825,1.04358 -3.8303,3.2071 -5.4397,4.80783 -1.9958,1.98515 -3.5206,3.81198 -4.7961,5.74629 -1.0286,1.55973 -2.3538,3.94098 -2.9449,5.29167 -0.5912,1.35068 -1.3834,3.5238 -1.7606,4.82915 -0.3772,1.30534 -0.8602,3.44847 -1.0733,4.7625 -0.2131,1.31402 -0.388,3.95112 -0.3885,5.86021 -6e-4,1.92515 0.1795,4.51759 0.4044,5.82083 0.2231,1.29237 0.7022,3.32899 1.0648,4.52582 0.3626,1.19683 1.3618,3.57808 2.2205,5.29167 0.8586,1.71358 2.3658,4.2467 3.3492,5.62915 0.9834,1.38244 3.2247,3.94443 4.9808,5.69329 1.756,1.74886 4.3238,3.97719 5.7063,4.95183 1.3824,0.97465 3.8827,2.47716 5.5562,3.33892 1.6735,0.86176 4.1143,1.95127 5.424,2.42115 1.3097,0.46987 2.6181,0.94122 2.9075,1.04745 0.3583,0.13145 -0.4445,0.37315 -2.5135,0.75676 -1.6719,0.31 -3.9626,0.62595 -5.0904,0.70211 -1.1278,0.0762 -2.9137,0.18162 -3.9687,0.23434 -1.0551,0.0527 -3.3869,10e-4 -5.1819,-0.11418 z m -21.8227,-89.98612 c 0.3973,-0.3732 0.6124,-0.87832 0.6124,-1.43791 0,-0.47445 -0.1968,-1.73361 -0.4374,-2.79815 -0.2979,-1.31831 -0.4436,-3.24332 -0.4569,-6.03657 -0.014,-2.99866 0.1084,-4.70557 0.4561,-6.35 0.2615,-1.23693 0.8321,-3.32863 1.268,-4.64822 0.4359,-1.31959 1.306,-3.34365 1.9336,-4.49791 0.6276,-1.15427 1.2259,-2.09866 1.3297,-2.09866 0.1038,0 0.4806,0.71437 0.8374,1.5875 0.3569,0.87312 1.56,4.26007 2.6737,7.52655 1.1137,3.26648 2.2396,6.15374 2.502,6.41614 0.2624,0.26241 0.8421,0.4771 1.2883,0.4771 0.4461,0 1.0251,-0.11451 1.2866,-0.25447 0.2615,-0.13996 0.6228,-0.61013 0.8028,-1.04482 0.2976,-0.71839 0.1655,-1.27934 -1.4516,-6.16167 -0.9784,-2.95423 -2.3727,-6.85961 -3.0983,-8.67862 -0.7256,-1.81901 -1.5687,-3.68295 -1.8734,-4.14207 -0.3048,-0.45913 -0.8756,-1.02468 -1.2685,-1.25678 -0.3929,-0.23209 -1.1264,-0.42199 -1.6301,-0.42199 -0.5043,0 -1.2076,0.22965 -1.5655,0.51119 -0.3575,0.28116 -1.2164,1.35555 -1.9088,2.38753 -0.6924,1.03198 -1.7714,2.97483 -2.3978,4.31745 -0.6263,1.34262 -1.4397,3.3959 -1.8074,4.56285 -0.3678,1.16695 -0.8671,3.01242 -1.1097,4.10104 -0.2609,1.17043 -0.5004,3.78064 -0.586,6.38709 -0.1139,3.4642 -0.048,4.98915 0.3092,7.12356 0.2498,1.49368 0.5707,3.02231 0.7131,3.39695 0.1424,0.37464 0.4477,0.88974 0.6784,1.14467 0.2488,0.27489 0.7996,0.4635 1.3536,0.4635 0.595,0 1.1565,-0.20888 1.5465,-0.57528 z m 81.38,28.50006 c -0.762,-0.35477 -1.9065,-1.18112 -2.5433,-1.83633 -0.6368,-0.65521 -1.3528,-1.60216 -1.591,-2.10433 -0.2383,-0.50218 -0.4333,-1.14837 -0.4333,-1.43598 0,-0.28761 0.1575,-0.65362 0.3499,-0.81336 0.1925,-0.15974 1.0557,-0.46173 1.9183,-0.67109 0.8625,-0.20936 2.3227,-0.44008 3.2449,-0.51271 1.4095,-0.11102 1.7573,-0.0514 2.1828,0.37411 0.3825,0.38246 0.5062,0.88225 0.5062,2.04507 0,0.8464 -0.1257,2.24538 -0.2794,3.10885 -0.1536,0.86347 -0.3402,1.77831 -0.4147,2.03297 -0.086,0.29325 -0.3956,0.46207 -0.8451,0.46044 -0.3904,-0.001 -1.3333,-0.29286 -2.0953,-0.64764 z m -43.3587,-14.15116 c -0.3073,-0.12968 -0.8133,-0.55941 -1.1245,-0.95496 -0.3482,-0.44274 -0.5657,-1.09857 -0.5657,-1.70616 0,-0.59331 0.2157,-1.2611 0.5407,-1.67427 0.31,-0.39417 0.9325,-0.76083 1.4596,-0.8597 0.5379,-0.10092 1.2515,-0.0347 1.7208,0.15972 0.441,0.18267 0.9748,0.66663 1.1862,1.07547 0.2114,0.40883 0.3844,1.10456 0.3844,1.54605 0,0.50571 -0.2692,1.0982 -0.7276,1.6013 -0.4002,0.43922 -1.0848,0.85477 -1.5214,0.92346 -0.4365,0.0687 -1.0452,0.0188 -1.3525,-0.11091 z m -0.235,-34.58185 c -1.7462,-0.49431 -4.4846,-1.13599 -6.0854,-1.42596 -1.6007,-0.28998 -4.6368,-0.65514 -6.7468,-0.81147 -2.1101,-0.15633 -3.8751,-0.32222 -3.9222,-0.36866 -0.047,-0.0464 0.1178,-0.48243 0.3665,-0.9689 0.2486,-0.48647 1.2031,-2.01558 2.1211,-3.39802 0.918,-1.38245 2.7334,-3.70417 4.0343,-5.15938 1.3009,-1.45521 3.3956,-3.5388 4.6549,-4.63021 1.2593,-1.0914 2.6704,-2.19273 3.1357,-2.44739 0.4654,-0.25466 1.2468,-0.46302 1.7364,-0.46302 0.4896,0 1.2992,0.19408 1.7991,0.4313 0.5316,0.2523 1.181,0.89568 1.5646,1.55019 0.4988,0.8512 0.7166,1.74501 0.9102,3.73589 0.1399,1.43934 0.2568,4.40293 0.2597,6.58574 0,2.18281 -0.071,4.95102 -0.1647,6.15156 -0.093,1.20055 -0.2416,2.16802 -0.3291,2.14994 -0.088,-0.0181 -1.588,-0.43731 -3.3343,-0.93161 z"
       id="path7"
       sodipodi:nodetypes="csssssssssssscssssscsssscscsssssssscssssssssssssssssssssssssssssssssssssssssscsssssssssssssssscssssscssssssssssssscssssssssssssccsscssssssssssssssssssssssssccssscssssssssscssssssssssccssssssssssssssccsssssssssssssssssssssssssccss" /><g
       id="g199"
       transform="translate(-262.38025,-184.62481)" /><g
       id="g16"
       transform="translate(108.95858,20.084531)" /></g></svg>
